<?xml version="1.0" encoding="utf-8"?>
<!-- Generator: Adobe Illustrator 24.1.0, SVG Export Plug-In . SVG Version: 6.00 Build 0)  -->
<svg version="1.1" id="e7518008-444d-481c-8895-28f7a8311917"
	 xmlns="http://www.w3.org/2000/svg" xmlns:xlink="http://www.w3.org/1999/xlink" x="0px" y="0px" viewBox="0 0 765.9 589.4"
	 style="enable-background:new 0 0 765.9 589.4;" xml:space="preserve">
<style type="text/css">
	.st0{fill:#FFB8B8;}
	.st1{fill:#2F2E41;}
	.st2{fill:#6C63FF;}
	.st3{opacity:0.1;enable-background:new    ;}
	.st4{fill:#3F3D56;}
</style>
<polygon class="st0" points="670.5,576.1 682.8,576.1 688.6,528.8 670.5,528.8 "/>
<path class="st1" d="M667.4,572.1h24.1l0,0c8.5,0,15.4,6.9,15.4,15.4l0,0v0.5h-39.5V572.1z"/>
<polygon class="st0" points="620.5,576.1 632.8,576.1 638.6,528.8 620.5,528.8 "/>
<path class="st1" d="M617.4,572.1h24.1l0,0c8.5,0,15.4,6.9,15.4,15.4l0,0v0.5h-39.5V572.1z"/>
<path class="st1" d="M622.9,555.8c-2.4,0-4.3-1.9-4.5-4.2l-10.9-177.8l73.1,7.9L691.5,541c0.1,2.2-1.4,4.3-3.6,4.7l-14.5,3
	c-2.4,0.5-4.8-1.1-5.3-3.5v-0.1l-17.7-97.2c0-0.3-0.3-0.4-0.5-0.4c-0.3,0-0.5,0.2-0.5,0.4l-10.7,100.4c-0.2,1.8-1.4,3.3-3.2,3.8
	l-11.4,3.5C623.8,555.7,623.3,555.8,622.9,555.8z"/>
<path class="st2" d="M606.9,384.8l-16.6-89.2c-3.6-19.1,7.9-37.9,26.6-43.3l0,0c20.1-5.9,41.1,5.7,47,25.7c0.4,1.5,0.8,3.1,1.1,4.7
	l15.9,99.9L606.9,384.8z"/>
<path class="st0" d="M617.5,400.5c-4.6-3.1-5.9-9.3-2.9-13.9c0.3-0.5,0.7-1,1.1-1.4l-16.4-31.8l18.5,2l12.7,29.8
	c3.8,4.1,3.5,10.5-0.6,14.3C626.5,402.7,621.4,403.1,617.5,400.5L617.5,400.5z"/>
<path class="st2" d="M612.9,379.6c-1.3-0.1-2.4-0.8-3.2-1.8l-19.6-26.4c-6.7-9-9.9-20.2-8.9-31.4l3-36.9
	c-1.1-7.9,4.5-15.2,12.4-16.3c7.9-1.1,15.2,4.5,16.3,12.4l0,0l-1.8,58.7l12.5,29.7c0.7,1.7,0.3,3.8-1.1,5.1l-6.3,5.8
	c-0.7,0.6-1.5,1-2.4,1.2C613.6,379.7,613.3,379.7,612.9,379.6z"/>
<path class="st0" d="M765.7,205c-1,5.5-6.3,9.1-11.7,8.1c-0.6-0.1-1.2-0.3-1.7-0.5l-22.8,27.5l-5.4-17.8l22.5-23.4
	c2.3-5.1,8.3-7.3,13.4-5C764.2,195.9,766.6,200.5,765.7,205L765.7,205z"/>
<path class="st2" d="M748.3,217.4c0.4,1.2,0.2,2.5-0.4,3.6l-16.7,28.3c-5.7,9.7-14.8,17-25.4,20.5l-35.2,11.6
	c-6.9,4.1-15.8,1.8-19.9-5c-4.1-6.9-1.8-15.8,5-19.9l0,0l54.8-21.3l22.5-23.1c1.3-1.4,3.4-1.7,5.1-1l7.8,3.5c0.8,0.4,1.5,1,2,1.8
	C748,216.7,748.1,217.1,748.3,217.4z"/>
<polygon class="st3" points="604.4,303.6 605.4,335.6 623.8,367.6 608.4,331.9 "/>
<g>
	<circle class="st0" cx="624.3" cy="218.4" r="24.6"/>
	<path class="st1" d="M627.1,223c3.2,0.4,6.2-1.6,7-4.7c0.8-3.5,3.5-6.3,7-7.3c4.5-1,10,1.1,13.3-2.3c1.4-1.6,2-3.8,1.6-5.8
		c-0.6-3.3-3-5.8-5.6-7.8c-5.4-4.2-12-6.7-18.9-7.1c-3.5-0.1-7.1,0.1-10.6,0.5c-3.7,0.2-7.3,0.9-10.9,2c-8.2,3.1-14.2,10.1-16,18.7
		c-1.6,8.5,0.6,17.4,6.1,24.1c3.2,4,7.4,7.2,12.2,9.3c1.1,0.5,2.4,0.6,3.6,0.2c3-1.2,2.5-4.8,1.1-7.3c-1.4-2.6-3.7-5.1-2.5-8.3
		c0.6-1.5,1.7-2.7,3.1-3.4C620.6,222.3,623.9,222.7,627.1,223L627.1,223z"/>
</g>
<path class="st4" d="M762.9,589.4h-192c-0.6,0-1-0.4-1-1s0.4-1,1-1h192c0.6,0,1,0.4,1,1S763.5,589.4,762.9,589.4z"/>
</svg>
