<?xml version="1.0" encoding="utf-8"?>
<!-- Generator: Adobe Illustrator 24.1.0, SVG Export Plug-In . SVG Version: 6.00 Build 0)  -->
<svg version="1.1" id="_x30_2d45862-41ba-4c70-8782-54d8e5b108cc"
	 xmlns="http://www.w3.org/2000/svg" xmlns:xlink="http://www.w3.org/1999/xlink" x="0px" y="0px" viewBox="0 0 900.1 696.7"
	 style="enable-background:new 0 0 900.1 696.7;" xml:space="preserve">
<style type="text/css">
	.st0{opacity:0.8;}
	.st1{fill:url(#SVGID_1_);}
	.st2{fill:#FFFFFF;}
	.st3{fill:#F5F5F5;}
	.st4{opacity:0.8;fill:#E0E0E0;enable-background:new    ;}
	.st5{fill:#FF5252;}
	.st6{fill:#FFFF00;}
	.st7{fill:#69F0AE;}
	.st8{fill:url(#SVGID_2_);}
	.st9{fill:#E0E0E0;}
	.st10{fill:#6C63FF;}
	.st11{fill:#333333;}
	.st12{opacity:0.1;enable-background:new    ;}
	.st13{fill:#FDB797;}
	.st14{opacity:5.000000e-02;fill:none;stroke:#000000;stroke-width:4;stroke-miterlimit:10;enable-background:new    ;}
</style>
<g class="st0">
	
		<linearGradient id="SVGID_1_" gradientUnits="userSpaceOnUse" x1="583.82" y1="-65.13" x2="583.82" y2="451.67" gradientTransform="matrix(1 0 0 -1 -149.95 596.34)">
		<stop  offset="0" style="stop-color:#808080;stop-opacity:0.25"/>
		<stop  offset="0.54" style="stop-color:#808080;stop-opacity:0.12"/>
		<stop  offset="1" style="stop-color:#808080;stop-opacity:0.1"/>
	</linearGradient>
	<path class="st1" d="M821.2,661.5H46.6v-501c0-8.7,7.1-15.8,15.8-15.8l0,0h743c8.7,0,15.8,7.1,15.8,15.8V661.5z"/>
</g>
<path class="st2" d="M73,153.8h721.7c8.7,0,15.8,7.1,15.8,15.8v491.9l0,0H57.2l0,0V169.6C57.2,160.9,64.3,153.8,73,153.8z"/>
<rect x="81.5" y="183.3" class="st3" width="704.8" height="462.3"/>
<rect x="84.2" y="205.8" class="st4" width="701.8" height="415.9"/>
<rect x="84.2" y="183.6" class="st3" width="701.8" height="22.1"/>
<circle class="st5" cx="99.2" cy="194.4" r="5.4"/>
<circle class="st6" cx="114" cy="194.4" r="5.4"/>
<circle class="st7" cx="128.7" cy="194.4" r="5.4"/>
<g class="st0">
	
		<linearGradient id="SVGID_2_" gradientUnits="userSpaceOnUse" x1="584.407" y1="-100.3541" x2="584.407" y2="-16.29" gradientTransform="matrix(1 0 0 -1 -149.95 596.34)">
		<stop  offset="0" style="stop-color:#808080;stop-opacity:0.25"/>
		<stop  offset="0.54" style="stop-color:#808080;stop-opacity:0.12"/>
		<stop  offset="1" style="stop-color:#808080;stop-opacity:0.1"/>
	</linearGradient>
	<path class="st8" d="M842.8,694.7c-43.1,3.3-783.6,2-809.5,0c-33.9-16.3-33.3-79.8-33.3-79.8l339.6-2.3l1.1,19.3h145.3l5.7-17
		h376.3C868.1,614.9,875.6,673.1,842.8,694.7z"/>
</g>
<path class="st3" d="M862.6,620h-369c4.1,4.7,3.6,11.9-1.2,16c-2.1,1.8-4.7,2.8-7.4,2.8H344.1c-6.3,0-11.3-5-11.4-11.3
	c0-2.7,1-5.4,2.8-7.4H5.1c0,0-0.6,55.1,32.9,69.3c25.6,1.7,757,2.8,799.6,0C870,670.6,862.6,620,862.6,620z"/>
<circle class="st9" cx="81.8" cy="631.9" r="4.5"/>
<circle class="st9" cx="95.4" cy="631.9" r="4.5"/>
<circle class="st9" cx="109" cy="631.9" r="4.5"/>
<path class="st10" d="M419.9,375.9h32.2c77,0,139.5,62.5,139.5,139.5v101.4l0,0H280.4l0,0V515.3
	C280.4,438.3,342.8,375.9,419.9,375.9z"/>
<circle class="st11" cx="436.3" cy="179.4" r="142.2"/>
<path class="st12" d="M415.3,334.4h41.1c16,0,29,13,29,29v28.3c0,24.5-19.9,44.3-44.3,44.3h-10.5c-24.5,0-44.3-19.9-44.3-44.3v-28.2
	C386.3,347.5,399.3,334.5,415.3,334.4L415.3,334.4L415.3,334.4z"/>
<path class="st13" d="M386.3,331.5h99.2l0,0v57.3c0,24.5-19.9,44.3-44.3,44.3h-10.5c-24.5,0-44.3-19.9-44.3-44.3L386.3,331.5
	L386.3,331.5z"/>
<path class="st12" d="M386.5,345.8c32,11.9,67.2,12,99.2,0.3v-12.2h-99.2V345.8z"/>
<circle class="st13" cx="436.3" cy="210.3" r="142.2"/>
<path class="st12" d="M300.3,159.9h271.2c0,0-23.2-109.5-125.7-102.6S300.3,159.9,300.3,159.9z"/>
<path class="st11" d="M300.3,156.2h271.2c0,0-23.2-109.5-125.7-102.5S300.3,156.2,300.3,156.2z"/>
<ellipse class="st13" cx="297" cy="204.2" rx="13.2" ry="24.8"/>
<ellipse class="st13" cx="574.8" cy="204.2" rx="13.2" ry="24.8"/>
<path class="st11" d="M321.4,83.7c3.3-10.6,9.2-20.8,18.3-27.1c6.9-4.8,15.2-7.1,23.2-9.9c11.8-4.2,23.1-9.6,33.7-16.1
	c12.1-7.4,23.4-16.4,36.7-21.3c22.8-8.4,48.3-3.9,71.9,2.2c5.8,1.5,11.7,3.1,16.8,6.3c5.9,3.6,10.5,9.1,14.9,14.4l37.4,45.2
	c3.4,4.1,6.9,8.3,9.3,13.1c2.3,4.6,3.7,9.7,4.3,14.8c1,8.3,0.2,17.1-4,24.3c-6.3,10.8-19.4,16.2-31.9,16.7s-24.8-3.1-36.8-6.6
	c-38.8-11.4-78-21.9-118.2-26.6c-20-2.5-40.1-3.1-60.1-1.9c-6.3,0.4-14.6,3.3-18.5-3.1C315,102.3,319.7,89.3,321.4,83.7z"/>
<line class="st14" x1="341.3" y1="506.3" x2="341.3" y2="616.8"/>
<line class="st14" x1="533.1" y1="506.3" x2="533.1" y2="616.8"/>
</svg>
