<?xml version="1.0" encoding="utf-8"?>
<!-- Generator: Adobe Illustrator 24.1.0, SVG Export Plug-In . SVG Version: 6.00 Build 0)  -->
<svg version="1.1" id="b6844486-882e-488a-b917-920917943dff"
	 xmlns="http://www.w3.org/2000/svg" xmlns:xlink="http://www.w3.org/1999/xlink" x="0px" y="0px" viewBox="0 0 254 430.8"
	 style="enable-background:new 0 0 254 430.8;" xml:space="preserve">
<style type="text/css">
	.st0{fill:#CCCCCC;}
	.st1{fill:#FFB8B8;}
	.st2{fill:#3F3D56;}
	.st3{fill:#2F2E41;}
	.st4{opacity:0.2;enable-background:new    ;}
</style>
<path class="st0" d="M251.9,430.8H0.3c-0.2,0-0.3-0.4-0.3-1s0.1-1,0.3-1h251.6c0.2,0,0.3,0.4,0.3,1S252.1,430.8,251.9,430.8z"/>
<path class="st1" d="M249,141c-4.8,2.8-11,1.2-13.8-3.6c-0.3-0.5-0.6-1-0.8-1.6l-35.7,0.7l9.9-15.7l32.4,1.7
	c5.4-1.6,11,1.5,12.6,6.8C254.9,133.8,253,138.6,249,141L249,141z"/>
<path class="st2" d="M233.3,136.5c-0.6,1.9-2.4,3.3-4.4,3.2l-65.4-1.7l-59.2-17.5c-6.8-2-10.7-9.1-8.7-15.9c2-6.8,9.1-10.7,15.9-8.7
	c0.1,0,0.2,0.1,0.4,0.1l53.5,17.5l64.2,6.2c2.3,0.2,4.1,2.2,4.1,4.6l-0.2,11C233.5,135.7,233.4,136.1,233.3,136.5z"/>
<polygon class="st1" points="138.5,417.6 150.7,417.6 156.6,370.3 138.5,370.3 "/>
<path class="st3" d="M135.3,413.6l24.1,0h0c8.5,0,15.4,6.9,15.4,15.4c0,0,0,0,0,0v0.5l-39.5,0L135.3,413.6z"/>
<polygon class="st1" points="102.5,417.6 114.7,417.6 120.6,370.3 102.5,370.3 "/>
<path class="st3" d="M99.3,413.6l24.1,0h0c8.5,0,15.4,6.9,15.4,15.4c0,0,0,0,0,0v0.5l-39.5,0L99.3,413.6z"/>
<path class="st3" d="M94.2,226.5l2.9,173.7c0,2.2,1.9,4,4.1,3.9c0.1,0,0.2,0,0.3,0l14.3-1.3c1.9-0.2,3.5-1.7,3.6-3.7l8.4-108.3
	c0-0.6,0.5-1,1.1-0.9c0.5,0,0.9,0.5,0.9,1l4.2,110.8c0.1,2.1,1.8,3.8,4,3.8h15.4c2.1,0,3.9-1.6,4-3.8l10.8-176.2l-64-16L94.2,226.5z
	"/>
<circle class="st1" cx="140.7" cy="38.8" r="24.6"/>
<path class="st2" d="M167.3,232.9C167.3,232.9,167.2,232.9,167.3,232.9l-57.5-0.9c-2.3,0-4.2-1.8-4.4-4.1l-0.7-6.5
	c0-0.3-0.3-0.5-0.5-0.4c-0.2,0-0.4,0.2-0.4,0.4l-0.7,6.7c-0.2,2.2-2,3.9-4.1,4l-4.1,0.3c-2.5,0.2-4.6-1.7-4.8-4.1c0-0.5,0-1,0.1-1.5
	l3.5-13.3c7.2-27.7,7.8-56.7,1.7-84.7l-1.7-7.9c-2.7-12.1,2.8-24.6,13.5-30.8l11.3-6.6l5.1-7.7c2-3,5.4-4.8,9-4.9
	c7.1-0.2,19.4,1.2,21.7,11.6c11.7,4,19.5,15.1,19.3,27.4l-1.7,118.4C171.8,231,169.8,232.9,167.3,232.9L167.3,232.9z"/>
<path class="st3" d="M138.7,53c-0.1,3.5-2.5,5.5-5.5,7.3s-6.4,2.6-9.8,3.4c-1.5,0.8-3.3,0.2-4.1-1.2c-0.2-0.4-0.3-0.9-0.4-1.4
	l-3.1-11.8c-1.1-3.8-1.9-7.6-2.4-11.5c-0.7-7.5,1-15.6,6.3-21s14.3-7.4,20.6-3.2C147.9,4,182,25,173.6,31.6
	c-1.5,1.2-3.8-0.3-5.7-0.5s-4,0.2-5.2,1.7c-1.6,1.9-0.9,4.8-1.5,7.2c-1.1,3.5-4.9,5.5-8.4,4.4c0,0,0,0-0.1,0c-1.6-0.8-3-1.7-4.4-2.8
	c-1.5-1-3.3-1.7-4.9-1.1c-2.2,0.8-2.9,3.5-3.1,5.7C139.8,48.5,139.4,50.8,138.7,53z"/>
<polygon class="st4" points="144.5,118.8 148.5,167.8 169.5,218.8 138.5,168.8 "/>
<path class="st1" d="M174.4,237.8c-4.3-3.5-5-9.8-1.5-14.1c0.4-0.5,0.8-0.9,1.2-1.3l-13.4-33.1l18.2,3.7l9.9,30.9
	c3.4,4.4,2.5,10.8-1.9,14.2C183.2,240.8,178,240.8,174.4,237.8L174.4,237.8z"/>
<path class="st2" d="M174.2,223.5c-2,0.1-3.9-1.1-4.6-3l-21.7-61.7l-4.6-61.6c-0.5-7.1,4.8-13.2,11.8-13.7
	c7.1-0.5,13.2,4.8,13.7,11.8c0,0.1,0,0.2,0,0.4l2.6,56.2l17,62.2c0.6,2.3-0.6,4.6-2.8,5.4l-10.3,3.7
	C175,223.3,174.6,223.4,174.2,223.5z"/>
</svg>
